<svg preserveAspectRatio="none" width="100%" height="100%" overflow="visible" style="display: block;" viewBox="0 0 55 55" fill="none" xmlns="http://www.w3.org/2000/svg">
<g id="Vector">
<path d="M13.5987 7.08521C14.2729 4.30493 18.2271 4.30493 18.9013 7.08521L20.7563 14.7353C20.997 15.728 21.772 16.503 22.7647 16.7437L30.4148 18.5987C33.1951 19.2729 33.1951 23.2271 30.4148 23.9013L22.7647 25.7563C21.772 25.997 20.997 26.772 20.7563 27.7647L18.9013 35.4148C18.2271 38.1951 14.2729 38.1951 13.5987 35.4148L11.7437 27.7647C11.503 26.772 10.728 25.997 9.73532 25.7563L2.08521 23.9013C-0.695068 23.2271 -0.69507 19.2729 2.08521 18.5987L9.73532 16.7437C10.728 16.503 11.503 15.728 11.7437 14.7353L13.5987 7.08521Z" fill="url(#paint0_linear_0_178)"/>
<path d="M35.8684 33.7832C36.2833 32.0723 38.7167 32.0723 39.1316 33.7832L40.2731 38.491C40.4212 39.1018 40.8982 39.5788 41.509 39.7269L46.2168 40.8684C47.9277 41.2833 47.9277 43.7167 46.2168 44.1316L41.509 45.2731C40.8982 45.4212 40.4212 45.8982 40.2731 46.509L39.1316 51.2168C38.7167 52.9277 36.2833 52.9277 35.8684 51.2168L34.7269 46.509C34.5788 45.8982 34.1018 45.4212 33.491 45.2731L28.7832 44.1316C27.0723 43.7167 27.0723 41.2833 28.7832 40.8684L33.491 39.7269C34.1018 39.5788 34.5788 39.1018 34.7269 38.491L35.8684 33.7832Z" fill="url(#paint1_linear_0_178)"/>
<path d="M43.9293 6.7796C44.2016 5.6568 45.7984 5.6568 46.0707 6.7796L46.8199 9.86907C46.9171 10.2699 47.2301 10.5829 47.6309 10.6801L50.7204 11.4293C51.8432 11.7016 51.8432 13.2984 50.7204 13.5707L47.6309 14.3199C47.2301 14.4171 46.9171 14.7301 46.8199 15.1309L46.0707 18.2204C45.7984 19.3432 44.2016 19.3432 43.9293 18.2204L43.1801 15.1309C43.0829 14.7301 42.7699 14.4171 42.3691 14.3199L39.2796 13.5707C38.1568 13.2984 38.1568 11.7016 39.2796 11.4293L42.3691 10.6801C42.7699 10.5829 43.0829 10.2699 43.1801 9.86907L43.9293 6.7796Z" fill="url(#paint2_linear_0_178)"/>
<path fill-rule="evenodd" clip-rule="evenodd" d="M45 7.32773L44.3886 9.84929C44.1442 10.8572 43.3572 11.6442 42.3493 11.8886L39.8277 12.5L42.3493 13.1114C43.3572 13.3558 44.1442 14.1428 44.3886 15.1507L45 17.6723L45.6114 15.1507C45.8558 14.1428 46.6428 13.3558 47.6507 13.1114L50.1723 12.5L47.6507 11.8886C46.6428 11.6442 45.8558 10.8572 45.6114 9.84929L45 7.32773ZM46.2237 5.9624C45.9125 4.6792 44.0875 4.6792 43.7763 5.9624L42.9202 9.49322C42.8091 9.95137 42.4514 10.3091 41.9932 10.4202L38.4624 11.2763C37.1792 11.5875 37.1792 13.4125 38.4624 13.7237L41.9932 14.5798C42.4514 14.6909 42.8091 15.0486 42.9202 15.5068L43.7763 19.0376C44.0875 20.3208 45.9125 20.3208 46.2237 19.0376L47.0798 15.5068C47.1909 15.0486 47.5486 14.6909 48.0068 14.5798L51.5376 13.7237C52.8208 13.4125 52.8208 11.5875 51.5376 11.2763L48.0068 10.4202C47.5486 10.3091 47.1909 9.95137 47.0798 9.49322L46.2237 5.9624Z" fill="url(#paint3_linear_0_178)"/>
<path d="M15 55C13.6193 55 12.5 53.8807 12.5 52.5C12.5 51.1193 13.6193 50 15 50C16.3807 50 17.5 51.1193 17.5 52.5C17.5 53.8807 16.3807 55 15 55Z" fill="url(#paint4_linear_0_178)"/>
<path d="M2.5 45C1.11929 45 -6.03528e-08 43.8807 0 42.5C6.03528e-08 41.1193 1.11929 40 2.5 40C3.88071 40 5 41.1193 5 42.5C5 43.8807 3.88071 45 2.5 45Z" fill="url(#paint5_linear_0_178)"/>
<path d="M30 5C28.6193 5 27.5 3.88071 27.5 2.5C27.5 1.11929 28.6193 -6.03528e-08 30 0C31.3807 6.03528e-08 32.5 1.11929 32.5 2.5C32.5 3.88071 31.3807 5 30 5Z" fill="url(#paint6_linear_0_178)"/>
<path d="M52.5 32.5C51.1193 32.5 50 31.3807 50 30C50 28.6193 51.1193 27.5 52.5 27.5C53.8807 27.5 55 28.6193 55 30C55 31.3807 53.8807 32.5 52.5 32.5Z" fill="url(#paint7_linear_0_178)"/>
</g>
<defs>
<linearGradient id="paint0_linear_0_178" x1="0" y1="27.5" x2="55" y2="27.5" gradientUnits="userSpaceOnUse">
<stop stop-color="#98C6F7"/>
<stop offset="1" stop-color="#EB5B92"/>
</linearGradient>
<linearGradient id="paint1_linear_0_178" x1="0" y1="27.5" x2="55" y2="27.5" gradientUnits="userSpaceOnUse">
<stop stop-color="#98C6F7"/>
<stop offset="1" stop-color="#EB5B92"/>
</linearGradient>
<linearGradient id="paint2_linear_0_178" x1="0" y1="27.5" x2="55" y2="27.5" gradientUnits="userSpaceOnUse">
<stop stop-color="#98C6F7"/>
<stop offset="1" stop-color="#EB5B92"/>
</linearGradient>
<linearGradient id="paint3_linear_0_178" x1="0" y1="27.5" x2="55" y2="27.5" gradientUnits="userSpaceOnUse">
<stop stop-color="#98C6F7"/>
<stop offset="1" stop-color="#EB5B92"/>
</linearGradient>
<linearGradient id="paint4_linear_0_178" x1="0" y1="27.5" x2="55" y2="27.5" gradientUnits="userSpaceOnUse">
<stop stop-color="#98C6F7"/>
<stop offset="1" stop-color="#EB5B92"/>
</linearGradient>
<linearGradient id="paint5_linear_0_178" x1="0" y1="27.5" x2="55" y2="27.5" gradientUnits="userSpaceOnUse">
<stop stop-color="#98C6F7"/>
<stop offset="1" stop-color="#EB5B92"/>
</linearGradient>
<linearGradient id="paint6_linear_0_178" x1="0" y1="27.5" x2="55" y2="27.5" gradientUnits="userSpaceOnUse">
<stop stop-color="#98C6F7"/>
<stop offset="1" stop-color="#EB5B92"/>
</linearGradient>
<linearGradient id="paint7_linear_0_178" x1="0" y1="27.5" x2="55" y2="27.5" gradientUnits="userSpaceOnUse">
<stop stop-color="#98C6F7"/>
<stop offset="1" stop-color="#EB5B92"/>
</linearGradient>
</defs>
</svg>
