<svg preserveAspectRatio="none" width="100%" height="100%" overflow="visible" style="display: block;" viewBox="0 0 20 20" fill="none" xmlns="http://www.w3.org/2000/svg">
<g id="Vector">
<path fill-rule="evenodd" clip-rule="evenodd" d="M12.6737 2.80361C10.948 2.3988 9.15194 2.3988 7.42616 2.80361C5.18212 3.32999 3.42994 5.08216 2.90356 7.32621C2.49875 9.05198 2.49875 10.848 2.90356 12.5738C2.98419 12.9175 3.09359 13.2497 3.22911 13.5678L4.27087 12.526C6.12998 10.6669 9.14421 10.6669 11.0033 12.526L11.9802 13.5029L11.9973 13.4858C13.3813 12.1019 15.5454 12.022 17.0206 13.1797C17.0892 12.9823 17.148 12.7801 17.1963 12.5738C17.6012 10.848 17.6012 9.05198 17.1963 7.32621C16.67 5.08216 14.9178 3.32999 12.6737 2.80361ZM18.1481 15.0427C18.5053 14.4071 18.7772 13.7161 18.9488 12.9849C19.417 10.9887 19.417 8.91129 18.9488 6.91515C18.2663 4.00553 15.9944 1.73368 13.0848 1.05117C11.0887 0.582942 9.01124 0.582942 7.0151 1.05117C4.10548 1.73368 1.83363 4.00553 1.15113 6.91514C0.682893 8.91129 0.682893 10.9887 1.15113 12.9849C1.83363 15.8945 4.10548 18.1663 7.0151 18.8488C9.01124 19.3171 11.0887 19.3171 13.0848 18.8488C15.1212 18.3712 16.8451 17.115 17.9305 15.4066C18.0338 15.3017 18.1067 15.1764 18.1481 15.0427ZM16.1504 14.8194C15.3879 13.988 14.0769 13.9518 13.2701 14.7586L13.253 14.7757L14.6906 16.2132C15.2518 15.833 15.7453 15.3615 16.1504 14.8194ZM12.955 17.0233L9.73053 13.7988C8.57436 12.6426 6.69983 12.6426 5.54366 13.7988L4.20458 15.1379C5.02812 16.0983 6.14726 16.7964 7.42617 17.0964C9.15194 17.5012 10.948 17.5012 12.6737 17.0964C12.7684 17.0742 12.8622 17.0498 12.955 17.0233Z" fill="url(#paint0_linear_0_89)"/>
<path d="M12.3013 5.35288C12.4154 4.88237 13.0846 4.88237 13.1987 5.35288L13.5126 6.64752C13.5533 6.8155 13.6845 6.94666 13.8525 6.98739L15.1471 7.30132C15.6176 7.41542 15.6176 8.08458 15.1471 8.19868L13.8525 8.51261C13.6845 8.55334 13.5533 8.6845 13.5126 8.85248L13.1987 10.1471C13.0846 10.6176 12.4154 10.6176 12.3013 10.1471L11.9874 8.85248C11.9467 8.6845 11.8155 8.55334 11.6475 8.51261L10.3529 8.19868C10.3235 8.19155 10.2959 8.18225 10.2702 8.17105C9.88421 8.00311 9.91178 7.40828 10.3529 7.30132L11.6475 6.98739C11.8155 6.94666 11.9467 6.8155 11.9874 6.64752L12.3013 5.35288Z" fill="url(#paint1_linear_0_89)"/>
<path d="M20 19C20 19.5523 19.5523 20 19 20C18.4477 20 18 19.5523 18 19C18 18.4477 18.4477 18 19 18C19.5523 18 20 18.4477 20 19Z" fill="url(#paint2_linear_0_89)"/>
<path d="M20 1C20 1.55228 19.5523 2 19 2C18.4477 2 18 1.55228 18 1C18 0.447715 18.4477 0 19 0C19.5523 0 20 0.447715 20 1Z" fill="url(#paint3_linear_0_89)"/>
<path d="M2 19C2 19.5523 1.55228 20 1 20C0.447715 20 0 19.5523 0 19C0 18.4477 0.447715 18 1 18C1.55228 18 2 18.4477 2 19Z" fill="url(#paint4_linear_0_89)"/>
<path d="M2 1C2 1.55228 1.55228 2 1 2C0.447715 2 0 1.55228 0 1C0 0.447715 0.447715 0 1 0C1.55228 0 2 0.447715 2 1Z" fill="url(#paint5_linear_0_89)"/>
</g>
<defs>
<linearGradient id="paint0_linear_0_89" x1="0" y1="10" x2="20" y2="10" gradientUnits="userSpaceOnUse">
<stop stop-color="#98C6F7"/>
<stop offset="1" stop-color="#EB5B92"/>
</linearGradient>
<linearGradient id="paint1_linear_0_89" x1="0" y1="10" x2="20" y2="10" gradientUnits="userSpaceOnUse">
<stop stop-color="#98C6F7"/>
<stop offset="1" stop-color="#EB5B92"/>
</linearGradient>
<linearGradient id="paint2_linear_0_89" x1="0" y1="10" x2="20" y2="10" gradientUnits="userSpaceOnUse">
<stop stop-color="#98C6F7"/>
<stop offset="1" stop-color="#EB5B92"/>
</linearGradient>
<linearGradient id="paint3_linear_0_89" x1="0" y1="10" x2="20" y2="10" gradientUnits="userSpaceOnUse">
<stop stop-color="#98C6F7"/>
<stop offset="1" stop-color="#EB5B92"/>
</linearGradient>
<linearGradient id="paint4_linear_0_89" x1="0" y1="10" x2="20" y2="10" gradientUnits="userSpaceOnUse">
<stop stop-color="#98C6F7"/>
<stop offset="1" stop-color="#EB5B92"/>
</linearGradient>
<linearGradient id="paint5_linear_0_89" x1="0" y1="10" x2="20" y2="10" gradientUnits="userSpaceOnUse">
<stop stop-color="#98C6F7"/>
<stop offset="1" stop-color="#EB5B92"/>
</linearGradient>
</defs>
</svg>
