<svg preserveAspectRatio="none" width="100%" height="100%" overflow="visible" style="display: block;" viewBox="0 0 18.3333 18.3333" fill="none" xmlns="http://www.w3.org/2000/svg">
<g id="Vector">
<path d="M2.23387 15.5675L3.5744 16.908C3.99772 17.3314 4.59743 17.5783 5.16187 17.5783C5.7263 17.5783 6.32601 17.3314 6.74933 16.908L15.0628 8.59456L15.4861 4.57293C15.5567 4.07905 15.1686 3.65572 14.6748 3.65572C14.6395 3.65572 14.6042 3.65572 14.5689 3.65572L10.5473 4.07905L2.23387 12.3925C1.35194 13.2745 1.35194 14.6856 2.23387 15.5675ZM11.3234 5.70181L13.687 5.45487L13.4401 7.81846L9.43039 11.8634L8.3368 12.957L6.1849 10.805L7.27849 9.71145L11.3234 5.70181ZM3.43329 13.592L4.98548 12.0045L7.13738 14.1564L5.54991 15.7086C5.40881 15.8497 5.23242 15.885 5.16187 15.885C5.09131 15.885 4.91493 15.8497 4.77382 15.7086L3.43329 14.3681C3.22163 14.1564 3.22163 13.8036 3.43329 13.592Z" fill="url(#paint0_linear_0_209)"/>
<path d="M2.78948 0.427735C2.92778 -0.142578 3.73889 -0.142578 3.87718 0.427735L4.2577 1.99699C4.30708 2.20061 4.46606 2.35959 4.66968 2.40896L6.23893 2.78948C6.80924 2.92778 6.80925 3.73889 6.23893 3.87718L4.66968 4.2577C4.46606 4.30708 4.30708 4.46606 4.2577 4.66968L3.87718 6.23893C3.73889 6.80924 2.92778 6.80925 2.78948 6.23893L2.40896 4.66968C2.35959 4.46606 2.20061 4.30708 1.99699 4.2577L0.427735 3.87718C-0.142578 3.73889 -0.142578 2.92778 0.427735 2.78948L1.99699 2.40896C2.20061 2.35959 2.35959 2.20061 2.40896 1.99699L2.78948 0.427735Z" fill="url(#paint1_linear_0_209)"/>
<path fill-rule="evenodd" clip-rule="evenodd" d="M3.33333 1.03455L3.06158 2.15524C2.95296 2.6032 2.6032 2.95296 2.15524 3.06158L1.03455 3.33333L2.15524 3.60508C2.6032 3.71371 2.95296 4.06347 3.06158 4.51143L3.33333 5.63212L3.60508 4.51143C3.71371 4.06347 4.06347 3.71371 4.51143 3.60508L5.63212 3.33333L4.51143 3.06158C4.06347 2.95296 3.71371 2.6032 3.60508 2.15524L3.33333 1.03455ZM3.87718 0.427735C3.73889 -0.142578 2.92778 -0.142578 2.78948 0.427735L2.40896 1.99699C2.35959 2.20061 2.20061 2.35959 1.99699 2.40896L0.427735 2.78948C-0.142578 2.92778 -0.142578 3.73889 0.427735 3.87718L1.99699 4.2577C2.20061 4.30708 2.35959 4.46606 2.40896 4.66968L2.78948 6.23893C2.92778 6.80925 3.73889 6.80924 3.87718 6.23893L4.2577 4.66968C4.30708 4.46606 4.46606 4.30708 4.66968 4.2577L6.23893 3.87718C6.80925 3.73889 6.80924 2.92778 6.23893 2.78948L4.66968 2.40896C4.46606 2.35959 4.30708 2.20061 4.2577 1.99699L3.87718 0.427735Z" fill="url(#paint2_linear_0_209)"/>
<path d="M15.4254 13.6541C15.5292 13.2264 16.1375 13.2264 16.2412 13.6541L16.5266 14.8311C16.5636 14.9838 16.6829 15.103 16.8356 15.1401L18.0125 15.4254C18.4403 15.5292 18.4403 16.1375 18.0125 16.2412L16.8356 16.5266C16.6829 16.5636 16.5636 16.6829 16.5266 16.8356L16.2412 18.0125C16.1375 18.4403 15.5292 18.4403 15.4254 18.0125L15.1401 16.8356C15.103 16.6829 14.9838 16.5636 14.8311 16.5266L13.6541 16.2412C13.2264 16.1375 13.2264 15.5292 13.6541 15.4254L14.8311 15.1401C14.9838 15.103 15.103 14.9838 15.1401 14.8311L15.4254 13.6541Z" fill="url(#paint3_linear_0_209)"/>
<path fill-rule="evenodd" clip-rule="evenodd" d="M15.8333 14.1092L15.6295 14.9498C15.5481 15.2857 15.2857 15.5481 14.9498 15.6295L14.1092 15.8333L14.9498 16.0371C15.2857 16.1186 15.5481 16.3809 15.6295 16.7169L15.8333 17.5574L16.0371 16.7169C16.1186 16.3809 16.3809 16.1186 16.7169 16.0371L17.5574 15.8333L16.7169 15.6295C16.3809 15.5481 16.1186 15.2857 16.0371 14.9498L15.8333 14.1092ZM16.2412 13.6541C16.1375 13.2264 15.5292 13.2264 15.4254 13.6541L15.1401 14.8311C15.103 14.9838 14.9838 15.103 14.8311 15.1401L13.6541 15.4254C13.2264 15.5292 13.2264 16.1375 13.6541 16.2412L14.8311 16.5266C14.9838 16.5636 15.103 16.6829 15.1401 16.8356L15.4254 18.0125C15.5292 18.4403 16.1375 18.4403 16.2412 18.0125L16.5266 16.8356C16.5636 16.6829 16.6829 16.5636 16.8356 16.5266L18.0125 16.2412C18.4403 16.1375 18.4403 15.5292 18.0125 15.4254L16.8356 15.1401C16.6829 15.103 16.5636 14.9838 16.5266 14.8311L16.2412 13.6541Z" fill="url(#paint4_linear_0_209)"/>
<path d="M18.3333 0.833333C18.3333 1.29357 17.9602 1.66667 17.5 1.66667C17.0398 1.66667 16.6667 1.29357 16.6667 0.833333C16.6667 0.373096 17.0398 0 17.5 0C17.9602 0 18.3333 0.373096 18.3333 0.833333Z" fill="url(#paint5_linear_0_209)"/>
<path d="M10 0.833333C10 1.29357 9.6269 1.66667 9.16667 1.66667C8.70643 1.66667 8.33333 1.29357 8.33333 0.833333C8.33333 0.373096 8.70643 0 9.16667 0C9.6269 0 10 0.373096 10 0.833333Z" fill="url(#paint6_linear_0_209)"/>
<path d="M2.5 9.16667C2.5 9.6269 2.1269 10 1.66667 10C1.20643 10 0.833333 9.6269 0.833333 9.16667C0.833333 8.70643 1.20643 8.33333 1.66667 8.33333C2.1269 8.33333 2.5 8.70643 2.5 9.16667Z" fill="url(#paint7_linear_0_209)"/>
</g>
<defs>
<linearGradient id="paint0_linear_0_209" x1="0" y1="9.16667" x2="18.3333" y2="9.16667" gradientUnits="userSpaceOnUse">
<stop stop-color="#98C6F7"/>
<stop offset="1" stop-color="#EB5B92"/>
</linearGradient>
<linearGradient id="paint1_linear_0_209" x1="0" y1="9.16667" x2="18.3333" y2="9.16667" gradientUnits="userSpaceOnUse">
<stop stop-color="#98C6F7"/>
<stop offset="1" stop-color="#EB5B92"/>
</linearGradient>
<linearGradient id="paint2_linear_0_209" x1="0" y1="9.16667" x2="18.3333" y2="9.16667" gradientUnits="userSpaceOnUse">
<stop stop-color="#98C6F7"/>
<stop offset="1" stop-color="#EB5B92"/>
</linearGradient>
<linearGradient id="paint3_linear_0_209" x1="0" y1="9.16667" x2="18.3333" y2="9.16667" gradientUnits="userSpaceOnUse">
<stop stop-color="#98C6F7"/>
<stop offset="1" stop-color="#EB5B92"/>
</linearGradient>
<linearGradient id="paint4_linear_0_209" x1="0" y1="9.16667" x2="18.3333" y2="9.16667" gradientUnits="userSpaceOnUse">
<stop stop-color="#98C6F7"/>
<stop offset="1" stop-color="#EB5B92"/>
</linearGradient>
<linearGradient id="paint5_linear_0_209" x1="0" y1="9.16667" x2="18.3333" y2="9.16667" gradientUnits="userSpaceOnUse">
<stop stop-color="#98C6F7"/>
<stop offset="1" stop-color="#EB5B92"/>
</linearGradient>
<linearGradient id="paint6_linear_0_209" x1="0" y1="9.16667" x2="18.3333" y2="9.16667" gradientUnits="userSpaceOnUse">
<stop stop-color="#98C6F7"/>
<stop offset="1" stop-color="#EB5B92"/>
</linearGradient>
<linearGradient id="paint7_linear_0_209" x1="0" y1="9.16667" x2="18.3333" y2="9.16667" gradientUnits="userSpaceOnUse">
<stop stop-color="#98C6F7"/>
<stop offset="1" stop-color="#EB5B92"/>
</linearGradient>
</defs>
</svg>
