<svg preserveAspectRatio="none" width="100%" height="100%" overflow="visible" style="display: block;" viewBox="0 0 21.9003 21.9002" fill="none" xmlns="http://www.w3.org/2000/svg">
<g id="Vector">
<path fill-rule="evenodd" clip-rule="evenodd" d="M6.90027 5.90025C6.90027 5.34796 7.34798 4.90025 7.90027 4.90025H13.9003C14.4526 4.90025 14.9003 5.34796 14.9003 5.90025C14.9003 6.45253 14.4526 6.90025 13.9003 6.90025H11.9003V14.9002H13.9003C14.4526 14.9002 14.9003 15.348 14.9003 15.9002C14.9003 16.4525 14.4526 16.9002 13.9003 16.9002H7.90027C7.34798 16.9002 6.90027 16.4525 6.90027 15.9002C6.90027 15.348 7.34798 14.9002 7.90027 14.9002H9.90027V6.90025H7.90027C7.34798 6.90025 6.90027 6.45253 6.90027 5.90025Z" fill="url(#paint0_linear_0_91)"/>
<path d="M17.9003 20.9002C17.9003 21.4525 17.4526 21.9002 16.9003 21.9002C16.348 21.9002 15.9003 21.4525 15.9003 20.9002C15.9003 20.348 16.348 19.9002 16.9003 19.9002C17.4526 19.9002 17.9003 20.348 17.9003 20.9002Z" fill="url(#paint1_linear_0_91)"/>
<path d="M21.9003 16.9002C21.9003 17.4525 21.4526 17.9002 20.9003 17.9002C20.348 17.9002 19.9003 17.4525 19.9003 16.9002C19.9003 16.348 20.348 15.9002 20.9003 15.9002C21.4526 15.9002 21.9003 16.348 21.9003 16.9002Z" fill="url(#paint2_linear_0_91)"/>
<path fill-rule="evenodd" clip-rule="evenodd" d="M7.90489 21.2149C7.73108 21.6806 7.21268 21.9172 6.747 21.7434C3.73057 20.6176 1.30759 18.2804 0.0700028 15.3231C-0.121884 14.8646 0.0942686 14.3373 0.552793 14.1454C1.01132 13.9535 1.53858 14.1697 1.73047 14.6282C2.77647 17.1277 4.82681 19.1054 7.37642 20.0571C7.84209 20.2309 8.0787 20.7493 7.90489 21.2149Z" fill="url(#paint3_linear_0_91)"/>
<path fill-rule="evenodd" clip-rule="evenodd" d="M21.2156 7.92101C20.7501 8.09518 20.2315 7.85897 20.0573 7.39343C19.0982 4.82978 17.0973 2.77096 14.5696 1.73275C14.1098 1.5439 13.8902 1.01809 14.079 0.5583C14.2679 0.0985156 14.7937 -0.121124 15.2535 0.0677225C18.2429 1.29558 20.6079 3.72822 21.7432 6.76271C21.9173 7.22825 21.6811 7.74684 21.2156 7.92101Z" fill="url(#paint4_linear_0_91)"/>
<path d="M2.6108 0.485209C2.73527 -0.028073 3.46527 -0.0280734 3.58973 0.485208L3.9322 1.89754C3.97664 2.08079 4.11972 2.22388 4.30298 2.26831L5.71531 2.61078C6.22859 2.73525 6.22859 3.46525 5.71531 3.58971L4.30298 3.93218C4.28007 3.93774 4.25779 3.94483 4.23626 3.95336C4.08549 4.01302 3.97109 4.14261 3.9322 4.30296L3.58973 5.71529C3.58195 5.74737 3.57181 5.77744 3.5596 5.80551C3.37639 6.22656 2.72749 6.19649 2.6108 5.71529L2.26834 4.30296C2.26556 4.2915 2.2624 4.28021 2.25886 4.26908C2.20586 4.1022 2.06936 3.97384 1.89756 3.93218L0.48523 3.58971C0.45315 3.58193 0.423075 3.57179 0.395005 3.55958C-0.0260468 3.37636 0.00402796 2.72747 0.48523 2.61078L1.89756 2.26831C2.08081 2.22388 2.2239 2.08079 2.26833 1.89754L2.6108 0.485209Z" fill="url(#paint5_linear_0_91)"/>
</g>
<defs>
<linearGradient id="paint0_linear_0_91" x1="-1.7723e-09" y1="10.9501" x2="21.9003" y2="10.9501" gradientUnits="userSpaceOnUse">
<stop stop-color="#98C6F7"/>
<stop offset="1" stop-color="#EB5B92"/>
</linearGradient>
<linearGradient id="paint1_linear_0_91" x1="-1.7723e-09" y1="10.9501" x2="21.9003" y2="10.9501" gradientUnits="userSpaceOnUse">
<stop stop-color="#98C6F7"/>
<stop offset="1" stop-color="#EB5B92"/>
</linearGradient>
<linearGradient id="paint2_linear_0_91" x1="-1.7723e-09" y1="10.9501" x2="21.9003" y2="10.9501" gradientUnits="userSpaceOnUse">
<stop stop-color="#98C6F7"/>
<stop offset="1" stop-color="#EB5B92"/>
</linearGradient>
<linearGradient id="paint3_linear_0_91" x1="-1.7723e-09" y1="10.9501" x2="21.9003" y2="10.9501" gradientUnits="userSpaceOnUse">
<stop stop-color="#98C6F7"/>
<stop offset="1" stop-color="#EB5B92"/>
</linearGradient>
<linearGradient id="paint4_linear_0_91" x1="-1.7723e-09" y1="10.9501" x2="21.9003" y2="10.9501" gradientUnits="userSpaceOnUse">
<stop stop-color="#98C6F7"/>
<stop offset="1" stop-color="#EB5B92"/>
</linearGradient>
<linearGradient id="paint5_linear_0_91" x1="-1.7723e-09" y1="10.9501" x2="21.9003" y2="10.9501" gradientUnits="userSpaceOnUse">
<stop stop-color="#98C6F7"/>
<stop offset="1" stop-color="#EB5B92"/>
</linearGradient>
</defs>
</svg>
