<svg preserveAspectRatio="none" width="100%" height="100%" overflow="visible" style="display: block;" viewBox="0 0 18.2502 18.2502" fill="none" xmlns="http://www.w3.org/2000/svg">
<g id="Vector">
<path fill-rule="evenodd" clip-rule="evenodd" d="M5.75022 4.91687C5.75022 4.45663 6.12332 4.08354 6.58356 4.08354H11.5836C12.0438 4.08354 12.4169 4.45663 12.4169 4.91687C12.4169 5.37711 12.0438 5.75021 11.5836 5.75021H9.91689V12.4169H11.5836C12.0438 12.4169 12.4169 12.79 12.4169 13.2502C12.4169 13.7104 12.0438 14.0835 11.5836 14.0835H6.58356C6.12332 14.0835 5.75022 13.7104 5.75022 13.2502C5.75022 12.79 6.12332 12.4169 6.58356 12.4169H8.25022V5.75021H6.58356C6.12332 5.75021 5.75022 5.37711 5.75022 4.91687Z" fill="url(#paint0_linear_0_179)"/>
<path d="M14.9169 17.4169C14.9169 17.8771 14.5438 18.2502 14.0836 18.2502C13.6233 18.2502 13.2502 17.8771 13.2502 17.4169C13.2502 16.9566 13.6233 16.5835 14.0836 16.5835C14.5438 16.5835 14.9169 16.9566 14.9169 17.4169Z" fill="url(#paint1_linear_0_179)"/>
<path d="M18.2502 14.0835C18.2502 14.5438 17.8771 14.9169 17.4169 14.9169C16.9567 14.9169 16.5836 14.5438 16.5836 14.0835C16.5836 13.6233 16.9567 13.2502 17.4169 13.2502C17.8771 13.2502 18.2502 13.6233 18.2502 14.0835Z" fill="url(#paint2_linear_0_179)"/>
<path fill-rule="evenodd" clip-rule="evenodd" d="M6.58741 17.6791C6.44257 18.0672 6.01056 18.2644 5.6225 18.1195C3.10881 17.1813 1.08966 15.2336 0.0583356 12.7692C-0.10157 12.3871 0.0785572 11.9477 0.460661 11.7878C0.842764 11.6279 1.28215 11.8081 1.44206 12.1902C2.31373 14.2731 4.02234 15.9212 6.14701 16.7142C6.53508 16.8591 6.73225 17.2911 6.58741 17.6791Z" fill="url(#paint3_linear_0_179)"/>
<path fill-rule="evenodd" clip-rule="evenodd" d="M17.6797 6.60084C17.2917 6.74598 16.8596 6.54915 16.7144 6.16119C15.9152 4.02482 14.2478 2.30914 12.1413 1.44396C11.7582 1.28659 11.5751 0.848404 11.7325 0.46525C11.8899 0.0820964 12.3281 -0.100936 12.7112 0.0564354C15.2024 1.07965 17.1733 3.10685 18.1193 5.63559C18.2645 6.02354 18.0676 6.4557 17.6797 6.60084Z" fill="url(#paint4_linear_0_179)"/>
<path d="M2.17567 0.404341C2.27939 -0.0233941 2.88773 -0.0233945 2.99144 0.40434L3.27684 1.58128C3.31387 1.73399 3.4331 1.85323 3.58582 1.89026L4.76276 2.17565C5.19049 2.27937 5.19049 2.88771 4.76276 2.99143L3.58582 3.27682C3.56673 3.28145 3.54816 3.28736 3.53021 3.29446C3.40458 3.34418 3.30924 3.45217 3.27684 3.5858L2.99144 4.76274C2.98496 4.78947 2.97651 4.81453 2.96633 4.83793C2.81365 5.1888 2.27291 5.16374 2.17567 4.76274L1.89028 3.5858C1.88796 3.57625 1.88533 3.56684 1.88238 3.55757C1.83821 3.4185 1.72447 3.31153 1.5813 3.27682L0.404358 2.99143C0.377625 2.98494 0.352562 2.97649 0.329171 2.96631C-0.0217057 2.81364 0.00335663 2.27289 0.404358 2.17565L1.5813 1.89026C1.73401 1.85323 1.85325 1.73399 1.89028 1.58128L2.17567 0.404341Z" fill="url(#paint5_linear_0_179)"/>
</g>
<defs>
<linearGradient id="paint0_linear_0_179" x1="-1.47692e-09" y1="9.1251" x2="18.2502" y2="9.1251" gradientUnits="userSpaceOnUse">
<stop stop-color="#98C6F7"/>
<stop offset="1" stop-color="#EB5B92"/>
</linearGradient>
<linearGradient id="paint1_linear_0_179" x1="-1.47692e-09" y1="9.1251" x2="18.2502" y2="9.1251" gradientUnits="userSpaceOnUse">
<stop stop-color="#98C6F7"/>
<stop offset="1" stop-color="#EB5B92"/>
</linearGradient>
<linearGradient id="paint2_linear_0_179" x1="-1.47692e-09" y1="9.1251" x2="18.2502" y2="9.1251" gradientUnits="userSpaceOnUse">
<stop stop-color="#98C6F7"/>
<stop offset="1" stop-color="#EB5B92"/>
</linearGradient>
<linearGradient id="paint3_linear_0_179" x1="-1.47692e-09" y1="9.1251" x2="18.2502" y2="9.1251" gradientUnits="userSpaceOnUse">
<stop stop-color="#98C6F7"/>
<stop offset="1" stop-color="#EB5B92"/>
</linearGradient>
<linearGradient id="paint4_linear_0_179" x1="-1.47692e-09" y1="9.1251" x2="18.2502" y2="9.1251" gradientUnits="userSpaceOnUse">
<stop stop-color="#98C6F7"/>
<stop offset="1" stop-color="#EB5B92"/>
</linearGradient>
<linearGradient id="paint5_linear_0_179" x1="-1.47692e-09" y1="9.1251" x2="18.2502" y2="9.1251" gradientUnits="userSpaceOnUse">
<stop stop-color="#98C6F7"/>
<stop offset="1" stop-color="#EB5B92"/>
</linearGradient>
</defs>
</svg>
