<svg preserveAspectRatio="none" width="100%" height="100%" overflow="visible" style="display: block;" viewBox="0 0 22 22" fill="none" xmlns="http://www.w3.org/2000/svg">
<g id="Vector">
<path d="M2.68064 18.681L4.28928 20.2896C4.79727 20.7976 5.51692 21.094 6.19424 21.094C6.87156 21.094 7.59121 20.7976 8.0992 20.2896L18.0754 10.3135L18.5834 5.48752C18.668 4.89486 18.2024 4.38687 17.6097 4.38687C17.5674 4.38687 17.5251 4.38687 17.4827 4.38687L12.6568 4.89486L2.68064 14.871C1.62233 15.9294 1.62233 17.6227 2.68064 18.681ZM13.5881 6.84217L16.4244 6.54584L16.1281 9.38215L11.3165 14.236L10.0042 15.5484L7.42188 12.9661L8.73419 11.6537L13.5881 6.84217ZM4.11995 16.3104L5.98258 14.4054L8.56486 16.9877L6.6599 18.8503C6.49057 19.0197 6.2789 19.062 6.19424 19.062C6.10957 19.062 5.89791 19.0197 5.72858 18.8503L4.11995 17.2417C3.86595 16.9877 3.86595 16.5644 4.11995 16.3104Z" fill="url(#paint0_linear_0_95)"/>
<path d="M3.34738 0.513282C3.51333 -0.171094 4.48667 -0.171094 4.65262 0.513281L5.10924 2.39639C5.16849 2.64073 5.35927 2.83151 5.60361 2.89075L7.48672 3.34738C8.17109 3.51333 8.17109 4.48667 7.48672 4.65262L5.60361 5.10924C5.35927 5.16849 5.16849 5.35927 5.10924 5.60361L4.65262 7.48672C4.48667 8.17109 3.51333 8.17109 3.34738 7.48672L2.89076 5.60361C2.83151 5.35927 2.64073 5.16849 2.39639 5.10924L0.513282 4.65262C-0.171094 4.48667 -0.171094 3.51333 0.513281 3.34738L2.39639 2.89076C2.64073 2.83151 2.83151 2.64073 2.89075 2.39639L3.34738 0.513282Z" fill="url(#paint1_linear_0_95)"/>
<path fill-rule="evenodd" clip-rule="evenodd" d="M4 1.24146L3.6739 2.58629C3.54355 3.12384 3.12384 3.54355 2.58629 3.6739L1.24146 4L2.58629 4.3261C3.12384 4.45645 3.54355 4.87616 3.6739 5.41371L4 6.75854L4.3261 5.41371C4.45645 4.87616 4.87616 4.45645 5.41371 4.3261L6.75854 4L5.41371 3.6739C4.87616 3.54355 4.45645 3.12384 4.3261 2.58629L4 1.24146ZM4.65262 0.513281C4.48667 -0.171094 3.51333 -0.171094 3.34738 0.513282L2.89075 2.39639C2.83151 2.64073 2.64073 2.83151 2.39639 2.89076L0.513281 3.34738C-0.171094 3.51333 -0.171094 4.48667 0.513282 4.65262L2.39639 5.10924C2.64073 5.16849 2.83151 5.35927 2.89076 5.60361L3.34738 7.48672C3.51333 8.17109 4.48667 8.17109 4.65262 7.48672L5.10924 5.60361C5.16849 5.35927 5.35927 5.16849 5.60361 5.10924L7.48672 4.65262C8.17109 4.48667 8.17109 3.51333 7.48672 3.34738L5.60361 2.89075C5.35927 2.83151 5.16849 2.64073 5.10924 2.39639L4.65262 0.513281Z" fill="url(#paint2_linear_0_95)"/>
<path d="M18.5105 16.385C18.635 15.8717 19.365 15.8717 19.4895 16.385L19.8319 17.7973C19.8764 17.9805 20.0195 18.1236 20.2027 18.1681L21.615 18.5105C22.1283 18.635 22.1283 19.365 21.615 19.4895L20.2027 19.8319C20.0195 19.8764 19.8764 20.0195 19.8319 20.2027L19.4895 21.615C19.365 22.1283 18.635 22.1283 18.5105 21.615L18.1681 20.2027C18.1236 20.0195 17.9805 19.8764 17.7973 19.8319L16.385 19.4895C15.8717 19.365 15.8717 18.635 16.385 18.5105L17.7973 18.1681C17.9805 18.1236 18.1236 17.9805 18.1681 17.7973L18.5105 16.385Z" fill="url(#paint3_linear_0_95)"/>
<path fill-rule="evenodd" clip-rule="evenodd" d="M19 16.9311L18.7554 17.9397C18.6577 18.3429 18.3429 18.6577 17.9397 18.7554L16.9311 19L17.9397 19.2446C18.3429 19.3423 18.6577 19.6571 18.7554 20.0603L19 21.0689L19.2446 20.0603C19.3423 19.6571 19.6571 19.3423 20.0603 19.2446L21.0689 19L20.0603 18.7554C19.6571 18.6577 19.3423 18.3429 19.2446 17.9397L19 16.9311ZM19.4895 16.385C19.365 15.8717 18.635 15.8717 18.5105 16.385L18.1681 17.7973C18.1236 17.9805 17.9805 18.1236 17.7973 18.1681L16.385 18.5105C15.8717 18.635 15.8717 19.365 16.385 19.4895L17.7973 19.8319C17.9805 19.8764 18.1236 20.0195 18.1681 20.2027L18.5105 21.615C18.635 22.1283 19.365 22.1283 19.4895 21.615L19.8319 20.2027C19.8764 20.0195 20.0195 19.8764 20.2027 19.8319L21.615 19.4895C22.1283 19.365 22.1283 18.635 21.615 18.5105L20.2027 18.1681C20.0195 18.1236 19.8764 17.9805 19.8319 17.7973L19.4895 16.385Z" fill="url(#paint4_linear_0_95)"/>
<path d="M22 1C22 1.55228 21.5523 2 21 2C20.4477 2 20 1.55228 20 1C20 0.447715 20.4477 0 21 0C21.5523 0 22 0.447715 22 1Z" fill="url(#paint5_linear_0_95)"/>
<path d="M12 1C12 1.55228 11.5523 2 11 2C10.4477 2 10 1.55228 10 1C10 0.447715 10.4477 0 11 0C11.5523 0 12 0.447715 12 1Z" fill="url(#paint6_linear_0_95)"/>
<path d="M3 11C3 11.5523 2.55228 12 2 12C1.44772 12 1 11.5523 1 11C1 10.4477 1.44772 10 2 10C2.55228 10 3 10.4477 3 11Z" fill="url(#paint7_linear_0_95)"/>
</g>
<defs>
<linearGradient id="paint0_linear_0_95" x1="0" y1="11" x2="22" y2="11" gradientUnits="userSpaceOnUse">
<stop stop-color="#98C6F7"/>
<stop offset="1" stop-color="#EB5B92"/>
</linearGradient>
<linearGradient id="paint1_linear_0_95" x1="0" y1="11" x2="22" y2="11" gradientUnits="userSpaceOnUse">
<stop stop-color="#98C6F7"/>
<stop offset="1" stop-color="#EB5B92"/>
</linearGradient>
<linearGradient id="paint2_linear_0_95" x1="0" y1="11" x2="22" y2="11" gradientUnits="userSpaceOnUse">
<stop stop-color="#98C6F7"/>
<stop offset="1" stop-color="#EB5B92"/>
</linearGradient>
<linearGradient id="paint3_linear_0_95" x1="0" y1="11" x2="22" y2="11" gradientUnits="userSpaceOnUse">
<stop stop-color="#98C6F7"/>
<stop offset="1" stop-color="#EB5B92"/>
</linearGradient>
<linearGradient id="paint4_linear_0_95" x1="0" y1="11" x2="22" y2="11" gradientUnits="userSpaceOnUse">
<stop stop-color="#98C6F7"/>
<stop offset="1" stop-color="#EB5B92"/>
</linearGradient>
<linearGradient id="paint5_linear_0_95" x1="0" y1="11" x2="22" y2="11" gradientUnits="userSpaceOnUse">
<stop stop-color="#98C6F7"/>
<stop offset="1" stop-color="#EB5B92"/>
</linearGradient>
<linearGradient id="paint6_linear_0_95" x1="0" y1="11" x2="22" y2="11" gradientUnits="userSpaceOnUse">
<stop stop-color="#98C6F7"/>
<stop offset="1" stop-color="#EB5B92"/>
</linearGradient>
<linearGradient id="paint7_linear_0_95" x1="0" y1="11" x2="22" y2="11" gradientUnits="userSpaceOnUse">
<stop stop-color="#98C6F7"/>
<stop offset="1" stop-color="#EB5B92"/>
</linearGradient>
</defs>
</svg>
