<svg preserveAspectRatio="none" width="100%" height="100%" overflow="visible" style="display: block;" viewBox="0 0 19 19" fill="none" xmlns="http://www.w3.org/2000/svg">
<g id="Vector">
<path d="M5.43949 0.834083C5.70916 -0.278027 7.29084 -0.278028 7.56051 0.834082L8.30252 3.89413C8.3988 4.29118 8.70882 4.6012 9.10587 4.69748L12.1659 5.43949C13.278 5.70916 13.278 7.29084 12.1659 7.56051L9.10587 8.30252C8.70882 8.3988 8.3988 8.70882 8.30252 9.10587L7.56051 12.1659C7.29084 13.278 5.70916 13.278 5.43949 12.1659L4.69748 9.10587C4.6012 8.70882 4.29118 8.3988 3.89413 8.30252L0.834083 7.56051C-0.278027 7.29084 -0.278028 5.70916 0.834082 5.43949L3.89413 4.69748C4.29118 4.6012 4.6012 4.29118 4.69748 3.89413L5.43949 0.834083Z" fill="url(#paint0_linear_0_90)"/>
<path d="M14.3474 11.5133C14.5133 10.8289 15.4867 10.8289 15.6526 11.5133L16.1092 13.3964C16.1685 13.6407 16.3593 13.8315 16.6036 13.8908L18.4867 14.3474C19.1711 14.5133 19.1711 15.4867 18.4867 15.6526L16.6036 16.1092C16.3593 16.1685 16.1685 16.3593 16.1092 16.6036L15.6526 18.4867C15.4867 19.1711 14.5133 19.1711 14.3474 18.4867L13.8908 16.6036C13.8315 16.3593 13.6407 16.1685 13.3964 16.1092L11.5133 15.6526C10.8289 15.4867 10.8289 14.5133 11.5133 14.3474L13.3964 13.8908C13.6407 13.8315 13.8315 13.6407 13.8908 13.3964L14.3474 11.5133Z" fill="url(#paint1_linear_0_90)"/>
</g>
<defs>
<linearGradient id="paint0_linear_0_90" x1="-2.98022e-08" y1="9.5" x2="19" y2="9.5" gradientUnits="userSpaceOnUse">
<stop stop-color="#98C6F7"/>
<stop offset="1" stop-color="#EB5B92"/>
</linearGradient>
<linearGradient id="paint1_linear_0_90" x1="-2.98022e-08" y1="9.5" x2="19" y2="9.5" gradientUnits="userSpaceOnUse">
<stop stop-color="#98C6F7"/>
<stop offset="1" stop-color="#EB5B92"/>
</linearGradient>
</defs>
</svg>
